<svg width="16" height="16" viewBox="0 0 16 16" fill="none" xmlns="http://www.w3.org/2000/svg">
<g clip-path="url(#clip0_81_7494)">
<path d="M7.33337 2.6665H2.66671C2.31309 2.6665 1.97395 2.80698 1.7239 3.05703C1.47385 3.30708 1.33337 3.64622 1.33337 3.99984V13.3332C1.33337 13.6868 1.47385 14.0259 1.7239 14.276C1.97395 14.526 2.31309 14.6665 2.66671 14.6665H12C12.3537 14.6665 12.6928 14.526 12.9428 14.276C13.1929 14.0259 13.3334 13.6868 13.3334 13.3332V8.6665" stroke="#6C757D" stroke-width="1.33333" stroke-linecap="round" stroke-linejoin="round"/>
<path d="M12.3334 1.66665C12.5986 1.40144 12.9583 1.25244 13.3334 1.25244C13.7084 1.25244 14.0682 1.40144 14.3334 1.66665C14.5986 1.93187 14.7476 2.29158 14.7476 2.66665C14.7476 3.04173 14.5986 3.40144 14.3334 3.66665L8.00004 9.99999L5.33337 10.6667L6.00004 7.99999L12.3334 1.66665Z" stroke="#6C757D" stroke-width="1.33333" stroke-linecap="round" stroke-linejoin="round"/>
</g>
<defs>
<clipPath id="clip0_81_7494">
<rect width="16" height="16" fill="white"/>
</clipPath>
</defs>
</svg>
